<svg xmlns="http://www.w3.org/2000/svg" width="24.321" height="22.115" viewBox="0 0 24.321 22.115"><defs><style>.a{fill:#bebebe;}</style></defs><g transform="translate(0 0)"><g transform="translate(0 0)"><path class="a" d="M130.62,143.291a7.846,7.846,0,0,1-.07,1.047c.012-.076.02-.151.032-.227a8.173,8.173,0,0,1-.515,1.945c-.064.163.073-.166.02-.044-.015.035-.032.07-.046.1-.035.076-.07.151-.108.227-.073.148-.151.3-.233.439a7.812,7.812,0,0,1-.544.828c-.023.029-.11.145-.015.02s.009-.012-.015.017c-.052.064-.1.128-.157.189q-.161.188-.331.366a8.315,8.315,0,0,1-.73.666.416.416,0,0,1-.09.07.822.822,0,0,1,.1-.076c-.015.012-.029.023-.047.035-.07.052-.142.1-.215.157-.137.1-.273.186-.416.273a8.165,8.165,0,0,1-.863.456l-.14.061c-.081.038.131-.061.116-.049a.273.273,0,0,1-.073.029q-.126.052-.253.1c-.177.064-.355.122-.535.174a7.929,7.929,0,0,1-1.14.235c.076-.012.151-.02.227-.032a8.152,8.152,0,0,1-2.1,0c.076.012.151.02.227.032a8.171,8.171,0,0,1-1.945-.515c-.163-.064.166.073.044.02l-.1-.047c-.076-.035-.151-.07-.227-.107-.148-.073-.3-.151-.439-.233a7.812,7.812,0,0,1-.828-.544c-.029-.023-.145-.11-.02-.014s.012.009-.017-.015c-.064-.052-.128-.1-.189-.157q-.187-.161-.366-.331a8.323,8.323,0,0,1-.666-.73.417.417,0,0,1-.07-.09.825.825,0,0,1,.076.1c-.012-.015-.023-.029-.035-.046-.052-.07-.1-.142-.157-.215-.1-.137-.186-.273-.273-.416a8.159,8.159,0,0,1-.456-.863l-.061-.14c-.038-.081.061.131.049.116a.271.271,0,0,1-.029-.073q-.052-.126-.1-.253c-.064-.177-.122-.355-.174-.535a7.924,7.924,0,0,1-.235-1.14c.012.076.02.151.032.227a8.156,8.156,0,0,1,0-2.1c-.012.076-.02.151-.032.227a8.171,8.171,0,0,1,.515-1.945c.064-.163-.073.166-.02.044.015-.035.032-.07.047-.1.035-.076.07-.151.108-.227.073-.148.151-.3.233-.439a7.811,7.811,0,0,1,.544-.828c.023-.029.11-.145.015-.02s-.009.012.015-.017c.052-.064.1-.128.157-.189q.161-.187.331-.366a8.33,8.33,0,0,1,.73-.666.418.418,0,0,1,.09-.07.822.822,0,0,1-.1.076c.015-.012.029-.023.047-.035.07-.052.142-.1.215-.157.137-.1.273-.186.416-.273a8.158,8.158,0,0,1,.863-.456l.14-.061c.081-.038-.131.061-.116.049a.271.271,0,0,1,.073-.029q.126-.052.253-.1c.177-.064.355-.122.535-.174a7.928,7.928,0,0,1,1.14-.235l-.227.032a8.16,8.16,0,0,1,2.1,0l-.227-.032a8.169,8.169,0,0,1,1.945.515c.163.064-.166-.073-.044-.02l.1.046c.076.035.151.07.227.108.148.073.3.151.439.233a7.818,7.818,0,0,1,.828.544c.029.023.145.11.02.015s-.012-.009.017.015c.064.052.128.1.189.157q.188.161.366.331a8.329,8.329,0,0,1,.666.73.416.416,0,0,1,.07.09.834.834,0,0,1-.076-.1c.012.015.023.029.035.047.052.07.1.142.157.215.1.137.186.273.273.416a8.161,8.161,0,0,1,.456.863l.061.14c.038.081-.061-.131-.049-.116a.272.272,0,0,1,.029.073q.052.126.1.253c.064.177.122.355.174.535a7.934,7.934,0,0,1,.235,1.14c-.012-.076-.02-.151-.032-.227a9.042,9.042,0,0,1,.07,1.049.855.855,0,1,0,1.709,0,8.77,8.77,0,0,0-1.6-5.047,8.987,8.987,0,0,0-4.232-3.233,8.778,8.778,0,0,0-9.712,2.637,8.948,8.948,0,0,0-2.029,5.015,8.782,8.782,0,0,0,5.081,8.613,9.268,9.268,0,0,0,2.741.759,8.778,8.778,0,0,0,9.622-7.308,9.866,9.866,0,0,0,.122-1.433.853.853,0,1,0-1.706,0Z" transform="translate(-114.734 -134.495)"/></g></g><g transform="translate(15.028 13.473)"><g transform="translate(0 0)"><path class="a" d="M598.6,599.338l-.753-.689c-.6-.552-1.206-1.1-1.808-1.654q-1.1-1.007-2.2-2.012-.946-.868-1.9-1.733c-.308-.282-.61-.567-.921-.843-.006,0-.009-.009-.015-.012a.855.855,0,0,0-1.209,1.209l.753.689q.9.828,1.808,1.654,1.1,1.007,2.2,2.012.946.868,1.9,1.732c.308.282.61.567.922.843.006,0,.009.009.015.012a.855.855,0,1,0,1.209-1.209Z" transform="translate(-589.55 -592.15)"/></g></g></svg>